<svg id="Capa_1" data-name="Capa 1" xmlns="http://www.w3.org/2000/svg" viewBox="0 0 45.01 152"><defs><style>.cls-1{fill:#fff;}</style></defs><title>logo</title><path class="cls-1" d="M43,54.28v3.39s-.05,1.9-.05,4.49v48.68q.12,8.11,0,13.29a63.1,63.1,0,0,1-1.06,10.94,17.48,17.48,0,0,1-3.6,7.28,22,22,0,0,1-3.3,3.24A18.37,18.37,0,0,1,23.29,150a10.88,10.88,0,0,1-7.37-2.41,7.85,7.85,0,0,1-2.81-6.28q0-6.69,6.57-6.7a6.52,6.52,0,0,1,4.53,1.65A5.43,5.43,0,0,1,26,140.49a5.92,5.92,0,0,1-1.53,4c-.71.86-.69,1.16-.69,1.63,0,.71.22,1.42,1.39,1.42,2.51,0,4.27-1.52,5.29-4.58q.82-2.46.82-14.44V61.45c0-2.51-.74-4.07-2.23-4.7a25.08,25.08,0,0,0-5.64-.35,8.44,8.44,0,0,1-2.64-.24.75.75,0,0,1-.53-.7c0-.79.63-1.18,1.88-1.18H43" transform="translate(1 1)"/><path class="cls-1" d="M44,151H-1V-1H44ZM1,149H42V1H1Z" transform="translate(1 1)"/></svg>